<svg width="30" height="30" viewBox="0 0 30 30" fill="none" xmlns="http://www.w3.org/2000/svg">
<path d="M15.0126 5.38302e-05C11.2515 -0.00993702 7.62456 1.37112 4.8528 3.86838C2.08083 6.36563 0.367305 9.79619 0.052544 13.4782C-0.262204 17.1601 0.845288 20.8234 3.15442 23.7399L1.10577 28.4664C0.999904 28.7111 0.987388 28.985 1.07083 29.2378C1.15402 29.4904 1.32769 29.7051 1.55952 29.8422C1.79108 29.9792 2.06567 30.0294 2.3319 29.9833L10.0964 28.6501C12.8507 29.5875 15.8235 29.7159 18.6507 29.0198C21.4782 28.3235 24.0377 26.8328 26.0167 24.7298C27.9952 22.6271 29.3069 20.0033 29.7914 17.1799C30.2759 14.356 29.9121 11.4548 28.7446 8.83126C27.5772 6.20743 25.6566 3.9748 23.2176 2.40646C20.7789 0.838121 17.9276 0.00194264 15.0125 0.00063099L15.0126 5.38302e-05ZM10.0032 9.3541H13.9286C14.3291 9.3541 14.6994 9.56391 14.8997 9.90489C15.1 10.2459 15.1 10.6658 14.8997 11.0067C14.6994 11.3475 14.3291 11.5575 13.9286 11.5575H10.0032C9.60239 11.5575 9.23208 11.3475 9.03181 11.0067C8.83154 10.6658 8.83154 10.2459 9.03181 9.90489C9.23208 9.56392 9.60238 9.3541 10.0032 9.3541ZM20.0221 20.6435H10.0032C9.60239 20.6435 9.23208 20.4337 9.03181 20.0927C8.83154 19.7517 8.83154 19.3318 9.03181 18.9908C9.23208 18.6501 9.60238 18.4401 10.0032 18.4401H20.0221C20.4229 18.4401 20.7933 18.6501 20.9935 18.9908C21.1938 19.3318 21.1938 19.7517 20.9935 20.0927C20.7933 20.4337 20.423 20.6435 20.0221 20.6435ZM20.0221 16.1006H10.0032C9.60239 16.1006 9.23208 15.8905 9.03181 15.5495C8.83154 15.2088 8.83154 14.7886 9.03181 14.4479C9.23208 14.107 9.60238 13.8969 10.0032 13.8969H20.0221C20.4229 13.8969 20.7933 14.107 20.9935 14.4479C21.1938 14.7887 21.1938 15.2088 20.9935 15.5495C20.7933 15.8905 20.423 16.1006 20.0221 16.1006Z" fill="white"/>
</svg>
