<svg width="11" height="11" viewBox="0 0 11 11" fill="none" xmlns="http://www.w3.org/2000/svg">
<path d="M5.50007 3.78899e-09C5.99367 -2.95217e-05 6.46857 0.172499 6.82736 0.482192C7.18614 0.791885 7.40161 1.21527 7.42955 1.66548L7.43252 1.76543H10.5542C10.6672 1.76546 10.7759 1.80468 10.8585 1.87515C10.9411 1.94562 10.9913 2.04209 10.999 2.14507C11.0067 2.24805 10.9713 2.34987 10.9 2.42994C10.8287 2.51001 10.7268 2.56237 10.6148 2.57644L10.5542 2.58025H10.0809L9.31979 9.65284C9.28166 10.0054 9.10758 10.3342 8.82864 10.5804C8.5497 10.8265 8.18406 10.9741 7.79702 10.9967L7.69237 11H3.30777C2.91977 11 2.54442 10.8739 2.24879 10.6444C1.95316 10.4148 1.75652 10.0967 1.69402 9.74681L1.68035 9.6523L0.91866 2.58025H0.445951C0.338187 2.58024 0.23407 2.54459 0.152854 2.47988C0.0716381 2.41517 0.0188181 2.32578 0.0041622 2.22825L0 2.17284C4.54448e-06 2.07439 0.0390312 1.97927 0.109863 1.90507C0.180694 1.83088 0.278539 1.78262 0.385302 1.76923L0.445951 1.76543H3.56761C3.56761 1.29721 3.77121 0.848166 4.13362 0.517083C4.49602 0.186 4.98755 3.78899e-09 5.50007 3.78899e-09ZM9.18482 2.58025H1.81473L2.56809 9.57244C2.58477 9.72846 2.66002 9.8744 2.78109 9.98549C2.90215 10.0966 3.06155 10.166 3.23226 10.1819L3.30777 10.1852H7.69237C8.04913 10.1852 8.35178 9.95432 8.42075 9.64089L8.43264 9.57244L9.18422 2.58025H9.18482ZM6.54062 4.07407C6.64839 4.07408 6.7525 4.10973 6.83372 4.17444C6.91493 4.23915 6.96775 4.32854 6.98241 4.42607L6.98657 4.48148V8.28395C6.98654 8.38717 6.94362 8.48654 6.86648 8.56196C6.78934 8.63739 6.68374 8.68325 6.57102 8.69029C6.45829 8.69732 6.34685 8.665 6.2592 8.59986C6.17155 8.53472 6.11423 8.44162 6.09883 8.33936L6.09467 8.28395V4.48148C6.09467 4.37343 6.14165 4.2698 6.22529 4.1934C6.30892 4.117 6.42235 4.07407 6.54062 4.07407ZM4.45951 4.07407C4.56728 4.07408 4.6714 4.10973 4.75261 4.17444C4.83383 4.23915 4.88665 4.32854 4.9013 4.42607L4.90547 4.48148V8.28395C4.90543 8.38717 4.86251 8.48654 4.78537 8.56196C4.70824 8.63739 4.60264 8.68325 4.48991 8.69029C4.37718 8.69732 4.26574 8.665 4.17809 8.59986C4.09044 8.53472 4.03313 8.44162 4.01772 8.33936L4.01356 8.28395V4.48148C4.01356 4.37343 4.06055 4.2698 4.14418 4.1934C4.22781 4.117 4.34124 4.07407 4.45951 4.07407ZM5.50007 0.814815C5.23892 0.814824 4.98733 0.904537 4.79523 1.06615C4.60313 1.22776 4.48457 1.44945 4.46308 1.68721L4.45951 1.76543H6.54062C6.54062 1.51331 6.43099 1.27152 6.23585 1.09324C6.04071 0.914969 5.77604 0.814815 5.50007 0.814815Z" fill="white"/>
</svg>
