<svg width="13" height="8" viewBox="0 0 13 8" fill="none" xmlns="http://www.w3.org/2000/svg">
<path d="M6.96991 0.970043C7.11078 0.835932 7.29824 0.76179 7.49273 0.763262C7.68722 0.764733 7.87354 0.841703 8.01236 0.977931C8.15118 1.11416 8.23165 1.29899 8.23679 1.49342C8.24193 1.68785 8.17134 1.87667 8.03991 2.02004L4.04991 7.01004C3.9813 7.08394 3.8985 7.14325 3.80645 7.18441C3.71439 7.22557 3.61498 7.24775 3.51416 7.24962C3.41334 7.25149 3.31318 7.233 3.21967 7.19528C3.12616 7.15755 3.04121 7.10135 2.96991 7.03004L0.323913 4.38404C0.250226 4.31538 0.191124 4.23258 0.150132 4.14058C0.10914 4.04858 0.0870986 3.94927 0.0853218 3.84857C0.083545 3.74786 0.10207 3.64783 0.139791 3.55445C0.177512 3.46106 0.233656 3.37622 0.304875 3.305C0.376094 3.23379 0.460928 3.17764 0.554316 3.13992C0.647704 3.1022 0.747733 3.08367 0.848436 3.08545C0.949139 3.08723 1.04845 3.10927 1.14045 3.15026C1.23245 3.19125 1.31525 3.25036 1.38391 3.32404L3.47791 5.41704L6.94991 0.992043C6.95614 0.984323 6.96282 0.976976 6.96991 0.970043ZM6.04991 6.11004L6.96991 7.03004C7.0412 7.10119 7.12608 7.15726 7.2195 7.1949C7.31292 7.23253 7.41296 7.25097 7.51366 7.2491C7.61436 7.24723 7.71365 7.22511 7.80561 7.18403C7.89757 7.14296 7.98032 7.08379 8.04891 7.01004L12.0409 2.02004C12.1126 1.94924 12.1693 1.86472 12.2077 1.77152C12.246 1.67832 12.2651 1.57835 12.2639 1.47758C12.2628 1.37682 12.2413 1.27732 12.2008 1.18504C12.1603 1.09276 12.1017 1.00958 12.0283 0.940472C11.955 0.871365 11.8685 0.817747 11.7739 0.782819C11.6794 0.747891 11.5788 0.732371 11.4782 0.737184C11.3775 0.741998 11.2789 0.767047 11.1881 0.810835C11.0973 0.854623 11.0163 0.916253 10.9499 0.992043L7.47691 5.41704L6.99191 4.93104L6.04891 6.11004H6.04991Z" fill="white"/>
</svg>
