<svg width="22" height="24" viewBox="0 0 22 24" fill="none" xmlns="http://www.w3.org/2000/svg">
<defs>
    <linearGradient id="paint0_linear_201_9204" x1="10.7635" y1="0.96" x2="-1.33718" y2="35.754" gradientUnits="userSpaceOnUse">
        <stop stop-color="#E6007C"/>
        <stop offset="0.756699" stop-color="#00B8F2"/>
    </linearGradient>
</defs>
<path d="M10.6934 12.3202C14.0901 12.3202 16.8538 9.55681 16.8538 6.1604C16.8538 2.76371 14.0903 0 10.6934 0C7.29669 0 4.53298 2.76344 4.53298 6.1604C4.53298 9.55681 7.29669 12.3202 10.6934 12.3202ZM10.6934 1.54451C13.2386 1.54451 15.3091 3.61492 15.3091 6.16019C15.3091 8.70519 13.2386 10.7757 10.6934 10.7757C8.1481 10.7757 6.0777 8.70526 6.0777 6.16019C6.0777 3.61519 8.1481 1.54451 10.6934 1.54451ZM21.1616 23.0498C19.9469 17.9266 15.642 14.3481 10.6934 14.3481C5.7448 14.3481 1.44009 17.9263 0.225167 23.0498L0 24H21.3867L21.1616 23.0498ZM2.00067 22.4559C3.32095 18.5464 6.77445 15.8928 10.6934 15.8928C14.6123 15.8928 18.0664 18.5463 19.3861 22.4559H2.00067Z" fill="url(#paint0_linear_201_9204)"/>
</svg>
