<svg width="16" height="20" viewBox="0 0 16 20" fill="none" xmlns="http://www.w3.org/2000/svg">
<path d="M13.6183 7.29843H11.5745V1.84471C11.5745 0.827888 10.7468 0.00018381 9.72997 0.00018381L5.73304 0C4.71622 0 3.88852 0.827704 3.88852 1.84452V7.29825L1.84453 7.29843C0.827705 7.29843 0 8.12613 0 9.14295V18.1555C0 19.1723 0.827705 20 1.84453 20H13.6183C14.6351 20 15.4628 19.1723 15.4628 18.1555L15.463 9.14295C15.463 8.12613 14.6353 7.29843 13.6184 7.29843H13.6183ZM4.94223 1.84471C4.94223 1.4089 5.29699 1.05413 5.73281 1.05413H9.72974C10.1656 1.05413 10.5203 1.40889 10.5203 1.84471V7.29843H4.94237L4.94223 1.84471ZM14.4084 18.1555C14.4084 18.5913 14.0536 18.9461 13.6178 18.9461H1.84405C1.40824 18.9461 1.05348 18.5913 1.05348 18.1555L1.05366 9.143C1.05366 8.70719 1.40842 8.35242 1.84424 8.35242H13.618C14.0538 8.35242 14.4085 8.70718 14.4085 9.143L14.4084 18.1555ZM7.20418 15.3714H8.25813V12.0333H7.20418V15.3714Z" fill="white"/>
</svg>
