<svg width="30" height="27" viewBox="0 0 30 27" fill="none" xmlns="http://www.w3.org/2000/svg">
<path d="M14.9082 26.927C14.9448 26.9633 14.9817 26.9633 14.9817 27C20.049 23.023 30 15.5797 30 7.80811C30 3.50283 26.4748 0 22.142 0C19.0576 0 16.3769 1.7879 15.0918 4.37831C15.0552 4.45136 14.9817 4.63384 14.9817 4.63384C14.9817 4.63384 14.9082 4.48801 14.9082 4.45136C13.6598 1.82433 10.9793 6.46216e-06 7.858 6.46216e-06C3.52522 6.46216e-06 0 3.50258 0 7.80811C0 15.6527 9.9143 22.9865 14.9082 26.927L14.9082 26.927Z" fill="#E6017C"/>
</svg>
