<svg width="25" height="30" viewBox="0 0 25 30" fill="none" xmlns="http://www.w3.org/2000/svg">
<path d="M24.9778 26.437C24.8966 27.7855 24.0715 28.9901 22.8128 29.5969C21.5544 30.2038 20.0539 30.1208 18.8764 29.3791C17.6992 28.6375 17.0238 27.3501 17.1051 26.0014L6.3739 18.0861C5.5873 18.6811 4.59353 18.9661 3.59538 18.8827C2.59722 18.7995 1.66958 18.3544 1.0018 17.6383C0.334022 16.9219 -0.0237948 15.9886 0.00122932 15.0281C0.0262535 14.0676 0.432213 13.1524 1.13648 12.4691C1.84093 11.7858 2.79033 11.3856 3.7918 11.3504C4.79305 11.315 5.77057 11.6472 6.52528 12.2791L17.3593 5.09018C16.9121 3.92896 17.0859 2.63164 17.8246 1.6166C18.5636 0.601781 19.7734 -0.00215114 21.0642 5.75795e-06C22.3549 0.00211213 23.5629 0.609977 24.2981 1.62739C25.0333 2.64474 25.2024 3.94271 24.751 5.10221C24.2999 6.26175 23.285 7.13611 22.0344 7.44276C20.7841 7.74945 19.4562 7.44993 18.4796 6.64045L7.66971 13.8121C8.02008 14.7135 7.99635 15.7091 7.60315 16.5938L17.8985 24.1834H17.8983C18.561 23.3324 19.5675 22.789 20.6702 22.687C21.7727 22.5851 22.8689 22.9341 23.6891 23.6479C24.5093 24.3618 24.9772 25.3743 24.9779 26.4365L24.9778 26.437Z" fill="white"/>
</svg>
